<svg width="40" height="40" viewBox="0 0 40 40" fill="none" xmlns="http://www.w3.org/2000/svg">
  <!-- Open Book Icon - More recognizable -->
  <!-- Left page -->
  <path d="M5 10 Q5 8, 7 8 L18 8 Q20 8, 20 10 L20 32 Q20 30, 18 30 L7 30 Q5 30, 5 32 Z" 
        fill="#C9A86A" stroke="#E5D4A3" stroke-width="0.5"/>
  <!-- Right page -->
  <path d="M35 10 Q35 8, 33 8 L22 8 Q20 8, 20 10 L20 32 Q20 30, 22 30 L33 30 Q35 30, 35 32 Z" 
        fill="#C9A86A" stroke="#E5D4A3" stroke-width="0.5"/>
  
  <!-- Page lines for detail -->
  <line x1="8" y1="13" x2="17" y2="13" stroke="#2C5F4F" stroke-width="0.8" opacity="0.6"/>
  <line x1="8" y1="17" x2="17" y2="17" stroke="#2C5F4F" stroke-width="0.8" opacity="0.6"/>
  <line x1="8" y1="21" x2="17" y2="21" stroke="#2C5F4F" stroke-width="0.8" opacity="0.6"/>
  <line x1="23" y1="13" x2="32" y2="13" stroke="#2C5F4F" stroke-width="0.8" opacity="0.6"/>
  <line x1="23" y1="17" x2="32" y2="17" stroke="#2C5F4F" stroke-width="0.8" opacity="0.6"/>
  <line x1="23" y1="21" x2="32" y2="21" stroke="#2C5F4F" stroke-width="0.8" opacity="0.6"/>
  
  <!-- Center binding -->
  <line x1="20" y1="8" x2="20" y2="32" stroke="#B89858" stroke-width="1.5"/>
</svg>
